HIERARCHY
ROOT joint_Root
{
	OFFSET 0.0 0.0 0.0
	CHANNELS 6 Xposition Yposition Zposition Zrotation Xrotation Yrotation 
	JOINT Hips
	{
		OFFSET -0.726466 93.3139 -2.00062
		CHANNELS 6 Xposition Yposition Zposition Zrotation Xrotation Yrotation 
		JOINT Spine
		{
			OFFSET 15.7357 0.0 0.0
			CHANNELS 6 Xposition Yposition Zposition Zrotation Xrotation Yrotation 
			JOINT Chest
			{
				OFFSET 8.98455 -0.406207 0.0
				CHANNELS 6 Xposition Yposition Zposition Zrotation Xrotation Yrotation 
				JOINT Neck
				{
					OFFSET 16.3773 0.0 0.0
					CHANNELS 6 Xposition Yposition Zposition Zrotation Xrotation Yrotation 
					JOINT Head
					{
						OFFSET 6.45672 0.0 0.0
						CHANNELS 6 Xposition Yposition Zposition Zrotation Xrotation Yrotation 
						End Site
						{
							OFFSET 0.0 0.0 0.0
						}
					}
				}
				JOINT Shoulder_L
				{
					OFFSET 12.9942 -0.242716 4.98039
					CHANNELS 6 Xposition Yposition Zposition Zrotation Xrotation Yrotation 
					JOINT UpperArm_L
					{
						OFFSET 5.34809 0.0 0.0
						CHANNELS 6 Xposition Yposition Zposition Zrotation Xrotation Yrotation 
						JOINT LowerArm_L
						{
							OFFSET 24.3286 1.87007e-05 0.0
							CHANNELS 6 Xposition Yposition Zposition Zrotation Xrotation Yrotation 
							JOINT Hand_L
							{
								OFFSET 22.2916 0.0 0.0
								CHANNELS 6 Xposition Yposition Zposition Zrotation Xrotation Yrotation 
								End Site
								{
									OFFSET 0.0 0.0 0.0
								}
							}
						}
					}
				}
				JOINT Shoulder_R
				{
					OFFSET 12.9945 -0.242716 -4.98039
					CHANNELS 6 Xposition Yposition Zposition Zrotation Xrotation Yrotation 
					JOINT UpperArm_R
					{
						OFFSET -5.34813 0.0 0.0
						CHANNELS 6 Xposition Yposition Zposition Zrotation Xrotation Yrotation 
						JOINT LowerArm_R
						{
							OFFSET -24.3289 0.000322201 0.0
							CHANNELS 6 Xposition Yposition Zposition Zrotation Xrotation Yrotation 
							JOINT Hand_R
							{
								OFFSET -22.2915 -0.000108084 0.0
								CHANNELS 6 Xposition Yposition Zposition Zrotation Xrotation Yrotation 
								End Site
								{
									OFFSET 0.0 0.0 0.0
								}
							}
						}
					}
				}
			}
		}
		JOINT UpperLeg_L
		{
			OFFSET -2.19248 -6.46944 0.0
			CHANNELS 6 Xposition Yposition Zposition Zrotation Xrotation Yrotation 
			JOINT LowerLeg_L
			{
				OFFSET 39.0811 0.0 -1.23785e-05
				CHANNELS 6 Xposition Yposition Zposition Zrotation Xrotation Yrotation 
				JOINT Foot_L
				{
					OFFSET 40.9854 0.0 -1.26872e-05
					CHANNELS 6 Xposition Yposition Zposition Zrotation Xrotation Yrotation 
					JOINT Toes_L
					{
						OFFSET 11.7543 0.0 0.0
						CHANNELS 6 Xposition Yposition Zposition Zrotation Xrotation Yrotation 
						End Site
						{
							OFFSET 0.0 0.0 0.0
						}
					}
				}
			}
		}
		JOINT UpperLeg_R
		{
			OFFSET -2.19251 6.46944 0.0
			CHANNELS 6 Xposition Yposition Zposition Zrotation Xrotation Yrotation 
			JOINT LowerLeg_R
			{
				OFFSET -39.0811 -0.00228153 -0.0401928
				CHANNELS 6 Xposition Yposition Zposition Zrotation Xrotation Yrotation 
				JOINT Foot_R
				{
					OFFSET -40.9854 0.0 0.0
					CHANNELS 6 Xposition Yposition Zposition Zrotation Xrotation Yrotation 
					JOINT Toes_R
					{
						OFFSET -11.7543 0.0 0.0
						CHANNELS 6 Xposition Yposition Zposition Zrotation Xrotation Yrotation 
						End Site
						{
							OFFSET 0.0 0.0 0.0
						}
					}
				}
			}
		}
	}
}
MOTION
Frames:	9
Frame Time:	0.0333333
0.000000 0.000000 0.000000 0.000000 0.000000 -0.000000 -187.927000 89.007000 205.996000 -5.706880 87.098800 99.276700 15.735700 0.000005 -0.000001 83.183300 80.697000 -80.899100 8.984550 -0.406207 -0.000000 10.760900 -2.132940 4.767430 16.377300 -0.000001 -0.000001 8.756170 -2.830550 0.138601 6.456720 -0.000001 -0.000000 3.117720 -2.164850 -1.142930 12.994200 -0.242716 4.980390 -89.104400 -2.364420 -69.246600 5.348090 -0.000007 -0.000001 -61.293700 37.435600 -11.773800 24.328600 0.000019 0.000005 5.916260 7.026100 -40.269100 22.291600 -0.000001 0.000005 3.261900 5.538410 -8.170580 12.994500 -0.242716 -4.980390 88.893800 2.656770 -67.385400 -5.348130 -0.000001 -0.000004 -54.251000 30.284400 -18.669900 -24.328900 0.000322 -0.000009 4.223940 6.967940 -31.339700 -22.291500 -0.000108 -0.000004 3.041580 5.542260 -8.345920 -2.192480 -6.469440 -0.000000 -171.000000 -6.465690 -12.982600 39.081100 -0.000007 -0.000012 0.112758 -0.043808 68.765500 40.985400 -0.000006 -0.000013 3.748490 -2.984900 -57.133100 11.754300 -0.000000 0.000003 -0.005556 -0.066753 -19.293200 -2.192510 6.469440 -0.000001 -174.623000 13.957600 163.712000 -39.081100 -0.002282 -0.040193 0.073785 -0.086287 39.252100 -40.985400 0.000008 0.000006 7.034250 -6.519440 -70.131700 -11.754300 -0.000006 -0.000006 -0.005580 -0.066972 -19.298400
0.000000 0.000000 0.000000 0.000000 0.000000 -0.000000 -185.379000 89.831600 206.019000 21.815100 88.047400 71.340800 15.735700 0.000005 -0.000001 86.368000 81.093900 -84.649600 8.984550 -0.406207 -0.000000 10.030400 -1.087290 3.529920 16.377300 -0.000001 -0.000001 8.814980 -2.498910 0.175565 6.456720 -0.000001 -0.000000 3.352260 -2.779740 -1.374060 12.994200 -0.242716 4.980390 -89.019700 -2.471540 -68.355800 5.348090 -0.000007 -0.000001 -64.020900 36.870800 -7.862960 24.328600 0.000019 0.000005 4.956230 6.230550 -38.625600 22.291600 -0.000001 0.000005 2.878820 5.534210 -7.981120 12.994500 -0.242716 -4.980390 89.043400 2.388290 -68.165300 -5.348130 -0.000001 -0.000004 -52.318400 30.973400 -22.518700 -24.328900 0.000322 -0.000009 4.252900 6.576920 -33.000600 -22.291500 -0.000108 -0.000004 3.155230 5.539980 -8.241740 -2.192480 -6.469440 -0.000000 -172.904000 -7.898200 -17.043500 39.081100 -0.000007 -0.000012 0.104501 -0.047898 65.373200 40.985400 -0.000006 -0.000013 2.275760 -0.971714 -59.225000 11.754300 -0.000000 0.000003 -0.006856 -0.078429 -19.769500 -2.192510 6.469440 -0.000001 -176.062000 13.818500 166.847000 -39.081100 -0.002282 -0.040193 0.084496 -0.111589 36.044800 -40.985400 0.000008 0.000006 7.128180 -5.691830 -70.294500 -11.754300 -0.000006 -0.000006 -0.005329 -0.064616 -19.202400
0.000000 0.000000 0.000000 0.000000 0.000000 -0.000000 -182.793000 90.479300 205.973000 61.615900 87.889300 31.597600 15.735700 0.000005 -0.000001 90.084300 81.196300 -88.835300 8.984550 -0.406207 -0.000000 9.841990 0.048344 2.492000 16.377300 -0.000001 -0.000001 8.751150 -2.232310 0.195743 6.456720 -0.000001 -0.000000 3.348640 -3.385380 -1.558890 12.994200 -0.242716 4.980390 -88.951700 -2.526130 -67.453200 5.348090 -0.000007 -0.000001 -65.911200 36.154600 -4.773960 24.328600 0.000019 0.000005 4.698240 6.206150 -37.242700 22.291600 -0.000001 0.000005 2.373710 5.526350 -7.635050 12.994500 -0.242716 -4.980390 89.185700 2.107440 -68.869100 -5.348130 -0.000001 -0.000004 -49.802200 31.234500 -26.719900 -24.328900 0.000322 -0.000009 4.190790 6.047870 -34.824700 -22.291500 -0.000108 -0.000004 3.355500 5.540440 -8.262810 -2.192480 -6.469440 -0.000000 -174.359000 -9.697690 -19.620100 39.081100 -0.000007 -0.000012 0.092028 -0.054598 59.318300 40.985400 -0.000006 -0.000013 0.713397 0.074593 -60.265700 11.754300 -0.000000 0.000003 -0.005628 -0.067427 -19.320700 -2.192510 6.469440 -0.000001 -177.498000 13.646300 170.383000 -39.081100 -0.002282 -0.040193 0.068516 -0.100475 32.988600 -40.985400 0.000008 0.000006 6.851410 -4.576380 -70.426500 -11.754300 -0.000006 -0.000006 -0.005053 -0.061976 -19.094800
0.000000 0.000000 0.000000 0.000000 0.000000 -0.000000 -180.311000 90.880000 205.909000 79.530500 86.954800 13.590800 15.735700 0.000005 -0.000001 93.495600 81.249100 -92.560500 8.984550 -0.406207 -0.000000 9.696220 1.076470 1.777580 16.377300 -0.000001 -0.000001 8.524970 -1.839560 0.022787 6.456720 -0.000001 -0.000000 3.372430 -3.888330 -1.574680 12.994200 -0.242716 4.980390 -88.944400 -2.433190 -66.538000 5.348090 -0.000007 -0.000001 -67.240900 35.430900 -1.981970 24.328600 0.000019 0.000005 4.912700 6.721650 -36.291700 22.291600 -0.000001 0.000005 2.225690 5.525460 -7.596710 12.994500 -0.242716 -4.980390 89.310800 1.849870 -69.562500 -5.348130 -0.000001 -0.000004 -46.922800 30.864400 -31.056900 -24.328900 0.000322 -0.000009 4.120270 5.561960 -36.629000 -22.291500 -0.000108 -0.000004 3.379570 5.541470 -8.309840 -2.192480 -6.469440 -0.000000 -175.509000 -11.404500 -21.590300 39.081100 -0.000007 -0.000012 0.070264 -0.056627 51.132100 40.985400 -0.000006 -0.000013 -0.229710 -0.560969 -60.299400 11.754300 -0.000000 0.000003 -0.004813 -0.059655 -19.003900 -2.192510 6.469440 -0.000001 -178.542000 13.383800 173.479000 -39.081100 -0.002282 -0.040193 0.060787 -0.098351 30.306000 -40.985400 0.000008 0.000006 6.863140 -3.615550 -70.779000 -11.754300 -0.000006 -0.000006 -0.005554 -0.066727 -19.288400
0.000000 0.000000 0.000000 0.000000 0.000000 -0.000000 -177.854000 90.915800 205.814000 83.157600 85.820300 9.907160 15.735700 0.000005 -0.000001 96.515100 81.249000 -95.749500 8.984550 -0.406207 -0.000000 9.614320 1.986490 1.363060 16.377300 -0.000001 -0.000001 8.391190 -1.478720 -0.172170 6.456720 -0.000001 -0.000000 3.349110 -4.189270 -1.563540 12.994200 -0.242716 4.980390 -88.986500 -2.250930 -65.751000 5.348090 -0.000007 -0.000001 -68.276500 34.539200 0.742512 24.328600 0.000019 0.000005 4.736900 6.698320 -35.389900 22.291600 -0.000001 0.000005 2.163750 5.526550 -7.643400 12.994500 -0.242716 -4.980390 89.403100 1.659410 -70.212500 -5.348130 -0.000001 -0.000004 -43.888700 30.065800 -35.334800 -24.328900 0.000322 -0.000009 3.948530 5.023450 -38.255800 -22.291500 -0.000108 -0.000004 3.299220 5.542320 -8.348560 -2.192480 -6.469440 -0.000000 -176.285000 -12.868100 -22.795500 39.081100 -0.000007 -0.000012 0.044439 -0.050109 41.567000 40.985400 -0.000006 -0.000013 0.057262 -1.831770 -59.585100 11.754300 -0.000000 0.000003 -0.005243 -0.063805 -19.173000 -2.192510 6.469440 -0.000001 -179.257000 13.097700 176.003000 -39.081100 -0.002282 -0.040193 0.056113 -0.096123 28.783800 -40.985400 0.000008 0.000006 6.488580 -2.632270 -71.722700 -11.754300 -0.000006 -0.000006 -0.005232 -0.063693 -19.164800
0.000000 0.000000 0.000000 0.000000 0.000000 -0.000000 -175.352000 90.667900 205.734000 80.173200 84.518300 12.760900 15.735700 0.000005 -0.000001 99.517500 81.203900 -98.744800 8.984550 -0.406207 -0.000000 9.573890 2.904020 1.301220 16.377300 -0.000001 -0.000001 8.109760 -1.125070 -0.300454 6.456720 -0.000001 -0.000000 3.384180 -4.416610 -1.568090 12.994200 -0.242716 4.980390 -88.971500 -2.189550 -64.831700 5.348090 -0.000007 -0.000001 -69.134900 33.829200 2.918420 24.328600 0.000019 0.000005 4.591000 6.687060 -34.589400 22.291600 -0.000001 0.000005 1.766050 5.517650 -7.262030 12.994500 -0.242716 -4.980390 89.540500 1.316000 -70.752900 -5.348130 -0.000001 -0.000004 -41.245800 28.841800 -39.447000 -24.328900 0.000322 -0.000009 3.900030 4.755250 -39.440900 -22.291500 -0.000108 -0.000004 3.325490 5.543430 -8.399410 -2.192480 -6.469440 -0.000000 -176.350000 -14.136800 -23.245300 39.081100 -0.000007 -0.000012 0.024174 -0.040022 31.131700 40.985400 -0.000006 -0.000013 -0.384640 -1.879430 -59.393400 11.754300 -0.000000 0.000003 -0.004639 -0.057938 -18.933900 -2.192510 6.469440 -0.000001 -179.551000 12.910000 178.050000 -39.081100 -0.002282 -0.040193 0.051900 -0.091009 28.100200 -40.985400 0.000008 0.000006 5.995160 -1.625110 -73.081000 -11.754300 -0.000006 -0.000006 -0.004771 -0.059231 -18.982900
0.000000 0.000000 0.000000 0.000000 0.000000 -0.000000 -172.651000 90.152200 205.606000 75.616700 82.929000 17.207300 15.735700 0.000005 -0.000001 102.573000 81.121400 -101.681000 8.984550 -0.406207 -0.000000 9.551570 3.856910 1.462480 16.377300 -0.000001 -0.000001 7.813240 -0.753334 -0.359130 6.456720 -0.000001 -0.000000 3.455190 -4.541650 -1.585090 12.994200 -0.242716 4.980390 -88.854400 -2.361860 -64.115100 5.348090 -0.000007 -0.000001 -70.219300 33.006500 5.050150 24.328600 0.000019 0.000005 4.513990 6.795210 -33.712100 22.291600 -0.000001 0.000005 1.460200 5.516980 -7.232770 12.994500 -0.242716 -4.980390 89.682600 0.930280 -71.163600 -5.348130 -0.000001 -0.000004 -39.091000 27.466000 -43.153500 -24.328900 0.000322 -0.000009 3.908140 4.625680 -40.276500 -22.291500 -0.000108 -0.000004 3.495640 5.543850 -8.418930 -2.192480 -6.469440 -0.000000 -175.666000 -15.038900 -23.749900 39.081100 -0.000007 -0.000012 0.017788 -0.044290 21.882300 40.985400 -0.000006 -0.000013 -1.121100 -0.882955 -59.415700 11.754300 -0.000000 0.000003 -0.004695 -0.058492 -18.956500 -2.192510 6.469440 -0.000001 -179.586000 12.431000 179.946000 -39.081100 -0.002282 -0.040193 0.048506 -0.084611 28.111400 -40.985400 0.000008 0.000006 5.483260 -0.603420 -74.884700 -11.754300 -0.000006 -0.000006 -0.004510 -0.056643 -18.877500
0.000000 0.000000 0.000000 0.000000 0.000000 -0.000000 -169.717000 89.465900 205.398000 73.383000 81.056600 19.421200 15.735700 0.000005 -0.000001 105.427000 80.988300 -104.463000 8.984550 -0.406207 -0.000000 9.592980 4.781510 1.525550 16.377300 -0.000001 -0.000001 7.589960 -0.282115 -0.320681 6.456720 -0.000001 -0.000000 3.410100 -4.485640 -1.708420 12.994200 -0.242716 4.980390 -88.694100 -2.624360 -63.533000 5.348090 -0.000007 -0.000001 -71.304500 32.161600 7.041790 24.328600 0.000019 0.000005 4.632910 7.204330 -32.869500 22.291600 -0.000001 0.000005 1.015520 5.507790 -6.850160 12.994500 -0.242716 -4.980390 89.792300 0.623461 -71.572600 -5.348130 -0.000001 -0.000004 -37.715000 26.034400 -46.237500 -24.328900 0.000322 -0.000009 3.966430 4.611290 -40.784600 -22.291500 -0.000108 -0.000004 3.696370 5.545100 -8.476710 -2.192480 -6.469440 -0.000000 -175.040000 -15.830600 -22.340700 39.081100 -0.000007 -0.000012 0.002171 -0.010880 11.289100 40.985400 -0.000006 -0.000013 -0.498135 -1.132840 -60.603400 11.754300 -0.000000 0.000003 -0.004934 -0.060836 -19.052000 -2.192510 6.469440 -0.000001 -179.866000 11.791800 -178.155000 -39.081100 -0.002282 -0.040193 0.044121 -0.074967 28.566200 -40.985400 0.000008 0.000006 5.005650 0.541104 -76.862400 -11.754300 -0.000006 -0.000006 -0.004691 -0.058440 -18.950700
0.000000 0.000000 0.000000 0.000000 0.000000 -0.000000 -166.513000 88.689800 205.073000 73.265500 79.251800 19.518700 15.735700 0.000005 -0.000001 107.730000 80.841300 -106.823000 8.984550 -0.406207 -0.000000 9.671300 5.560020 1.343410 16.377300 -0.000001 -0.000001 7.375870 0.118919 -0.312933 6.456720 -0.000001 -0.000000 3.345700 -4.277530 -1.675040 12.994200 -0.242716 4.980390 -88.557200 -2.852140 -63.152600 5.348090 -0.000007 -0.000001 -72.143400 31.443400 8.632250 24.328600 0.000019 0.000005 4.803670 7.708590 -32.067300 22.291600 -0.000001 0.000005 0.691454 5.499320 -6.506060 12.994500 -0.242716 -4.980390 89.870000 0.396497 -71.852000 -5.348130 -0.000001 -0.000004 -37.310300 24.669600 -48.639200 -24.328900 0.000322 -0.000009 4.122710 4.760380 -40.983400 -22.291500 -0.000108 -0.000004 4.026680 5.546330 -8.534010 -2.192480 -6.469440 -0.000000 -174.758000 -16.989100 -22.672600 39.081100 -0.000007 -0.000012 -0.000175 0.001693 5.890820 40.985400 -0.000006 -0.000013 -0.740690 -1.998880 -61.278300 11.754300 -0.000000 0.000003 -0.005689 -0.067997 -19.343900 -2.192510 6.469440 -0.000001 179.276000 11.314300 -176.080000 -39.081100 -0.002282 -0.040193 0.031294 -0.050591 28.954100 -40.985400 0.000008 0.000006 4.348600 2.025730 -78.748900 -11.754300 -0.000006 -0.000006 -0.004721 -0.058743 -18.963000
